<?xml version="1.0" standalone="no"?>
<!DOCTYPE svg PUBLIC "-//W3C//DTD SVG 20010904//EN"
 "http://www.w3.org/TR/2001/REC-SVG-20010904/DTD/svg10.dtd">
<svg version="1.0" xmlns="http://www.w3.org/2000/svg"
 width="225.000000pt" height="225.000000pt" viewBox="0 0 225.000000 225.000000"
 preserveAspectRatio="xMidYMid meet">
<metadata>
Created by potrace 1.14, written by Peter Selinger 2001-2017
</metadata>
<g transform="translate(0.000000,225.000000) scale(0.100000,-0.100000)"
fill="#000000" stroke="none">
<path d="M610 1815 l0 -25 100 0 100 0 -2 -582 -3 -583 -97 -3 c-97 -3 -98 -3
-98 -27 l0 -25 320 0 320 0 0 25 0 25 -110 0 -110 0 0 290 0 290 43 0 c23 0
71 -5 106 -10 99 -14 133 -59 156 -207 6 -37 10 -43 31 -43 l24 0 0 270 0 270
-25 0 c-20 0 -25 -6 -30 -37 -17 -100 -49 -157 -100 -178 -17 -8 -70 -17 -118
-21 l-87 -7 0 277 0 276 164 0 c331 0 377 -31 446 -297 8 -34 15 -43 32 -43
21 0 21 2 15 128 -4 70 -7 157 -7 195 l0 67 -535 0 -535 0 0 -25z"/>
</g>
</svg>
